<?xml version="1.0" encoding="UTF-8"?>
<svg version="1.1" xmlns="http://www.w3.org/2000/svg" width="128" height="128">
<path d="M0 0 C40.26 0 80.52 0 122 0 C122.103125 11.92125 122.20625 23.8425 122.3125 36.125 C122.35802002 39.88148926 122.40354004 43.63797852 122.45043945 47.50830078 C122.47302246 52.11499023 122.47302246 52.11499023 122.47721863 54.27536011 C122.48486906 55.77600528 122.50239805 57.27662075 122.52787781 58.77706909 C122.56465344 61.0578096 122.56952489 63.3366818 122.56762695 65.61767578 C122.57873001 66.90118927 122.58983307 68.18470276 122.60127258 69.5071106 C121.79369667 74.19844929 120.425346 75.71455123 117 79 C112.44925044 81.82759993 107.15838605 81.28824996 101.96484375 81.2746582 C100.95777374 81.27976913 99.95070374 81.28488007 98.91311646 81.29014587 C95.58785035 81.30403371 92.26279164 81.30308589 88.9375 81.30078125 C86.62491784 81.30466819 84.31233638 81.30900285 81.99975586 81.31376648 C77.15443608 81.32122664 72.30918918 81.32093854 67.46386719 81.31567383 C61.25291065 81.3098749 55.04225189 81.32682164 48.8313446 81.3500185 C44.05641942 81.36474401 39.28156618 81.36562922 34.50662231 81.36250877 C32.21647552 81.36302243 29.92632474 81.36826839 27.63619995 81.37832069 C24.43565449 81.39064665 21.23569226 81.38391651 18.03515625 81.37231445 C17.08851105 81.37995819 16.14186584 81.38760193 15.16653442 81.39547729 C6.70241374 81.32760412 6.70241374 81.32760412 3 78 C0.06707586 73.52689656 -0.36840192 69.99636479 -0.34057617 64.70947266 C-0.34093778 63.99507208 -0.34129938 63.2806715 -0.34167194 62.54462242 C-0.33944731 60.25080918 -0.31667003 57.95774349 -0.29296875 55.6640625 C-0.28855337 54.24048209 -0.28549562 52.81689681 -0.28381348 51.39331055 C-0.2681373 46.13713236 -0.2262534 40.8810587 -0.1875 35.625 C-0.125625 23.86875 -0.06375 12.1125 0 0 Z M23 16 C22.90126184 17.99799572 22.87028201 19.99957158 22.875 22 C22.87242188 23.093125 22.86984375 24.18625 22.8671875 25.3125 C22.69452245 27.91830354 22.69452245 27.91830354 24 29 C25.99799572 29.09873816 27.99957158 29.12971799 30 29.125 C31.093125 29.12757812 32.18625 29.13015625 33.3125 29.1328125 C35.91830354 29.30547755 35.91830354 29.30547755 37 28 C37.09873816 26.00200428 37.12971799 24.00042842 37.125 22 C37.12757812 20.906875 37.13015625 19.81375 37.1328125 18.6875 C37.30547755 16.08169646 37.30547755 16.08169646 36 15 C34.00200428 14.90126184 32.00042842 14.87028201 30 14.875 C28.906875 14.87242188 27.81375 14.86984375 26.6875 14.8671875 C24.08169646 14.69452245 24.08169646 14.69452245 23 16 Z M53 15 C51.83016655 17.3396669 51.8338759 18.83391527 51.8125 21.4375 C51.79832031 22.21996094 51.78414062 23.00242187 51.76953125 23.80859375 C51.85913936 26.29205987 51.85913936 26.29205987 54 29 C56.86051233 29.40319167 56.86051233 29.40319167 60.0625 29.25 C61.14660156 29.23453125 62.23070312 29.2190625 63.34765625 29.203125 C65.92151708 29.29549888 65.92151708 29.29549888 67 28 C67.09873816 26.00200428 67.12971799 24.00042842 67.125 22 C67.12757812 20.906875 67.13015625 19.81375 67.1328125 18.6875 C67.30547755 16.08169646 67.30547755 16.08169646 66 15 C63.81360547 14.92741054 61.62499611 14.91626217 59.4375 14.9375 C58.23996094 14.94652344 57.04242188 14.95554687 55.80859375 14.96484375 C54.41833984 14.98224609 54.41833984 14.98224609 53 15 Z M83 16 C82.90126184 17.99799572 82.87028201 19.99957158 82.875 22 C82.87242188 23.093125 82.86984375 24.18625 82.8671875 25.3125 C82.69452245 27.91830354 82.69452245 27.91830354 84 29 C85.99799572 29.09873816 87.99957158 29.12971799 90 29.125 C91.093125 29.12757812 92.18625 29.13015625 93.3125 29.1328125 C95.91830354 29.30547755 95.91830354 29.30547755 97 28 C97.09873816 26.00200428 97.12971799 24.00042842 97.125 22 C97.12757812 20.906875 97.13015625 19.81375 97.1328125 18.6875 C97.30547755 16.08169646 97.30547755 16.08169646 96 15 C94.00200428 14.90126184 92.00042842 14.87028201 90 14.875 C88.906875 14.87242188 87.81375 14.86984375 86.6875 14.8671875 C84.08169646 14.69452245 84.08169646 14.69452245 83 16 Z M23 49 C22.97314062 51.14576637 22.95366912 53.29162645 22.9375 55.4375 C22.92589844 56.63246094 22.91429688 57.82742187 22.90234375 59.05859375 C22.66098208 61.88873341 22.66098208 61.88873341 24 63 C25.99799572 63.09873816 27.99957158 63.12971799 30 63.125 C31.093125 63.12757812 32.18625 63.13015625 33.3125 63.1328125 C35.91830354 63.30547755 35.91830354 63.30547755 37 62 C37.09873816 60.00200428 37.12971799 58.00042842 37.125 56 C37.12757812 54.906875 37.13015625 53.81375 37.1328125 52.6875 C37.30547755 50.08169646 37.30547755 50.08169646 36 49 C33.81360547 48.92741054 31.62499611 48.91626217 29.4375 48.9375 C28.23996094 48.94652344 27.04242188 48.95554688 25.80859375 48.96484375 C24.41833984 48.98224609 24.41833984 48.98224609 23 49 Z M53 49 C51.83016655 51.3396669 51.8338759 52.83391527 51.8125 55.4375 C51.79832031 56.21996094 51.78414062 57.00242187 51.76953125 57.80859375 C51.85913936 60.29205987 51.85913936 60.29205987 54 63 C56.86051233 63.40319167 56.86051233 63.40319167 60.0625 63.25 C61.14660156 63.23453125 62.23070312 63.2190625 63.34765625 63.203125 C65.92151708 63.29549888 65.92151708 63.29549888 67 62 C67.09873816 60.00200428 67.12971799 58.00042842 67.125 56 C67.12757812 54.906875 67.13015625 53.81375 67.1328125 52.6875 C67.30547755 50.08169646 67.30547755 50.08169646 66 49 C63.81360547 48.92741054 61.62499611 48.91626217 59.4375 48.9375 C58.23996094 48.94652344 57.04242188 48.95554688 55.80859375 48.96484375 C54.41833984 48.98224609 54.41833984 48.98224609 53 49 Z M83 49 C82.97314062 51.14576637 82.95366912 53.29162645 82.9375 55.4375 C82.92589844 56.63246094 82.91429688 57.82742187 82.90234375 59.05859375 C82.66098208 61.88873341 82.66098208 61.88873341 84 63 C85.99799572 63.09873816 87.99957158 63.12971799 90 63.125 C91.093125 63.12757812 92.18625 63.13015625 93.3125 63.1328125 C95.91830354 63.30547755 95.91830354 63.30547755 97 62 C97.09873816 60.00200428 97.12971799 58.00042842 97.125 56 C97.12757812 54.906875 97.13015625 53.81375 97.1328125 52.6875 C97.30547755 50.08169646 97.30547755 50.08169646 96 49 C93.81360547 48.92741054 91.62499611 48.91626217 89.4375 48.9375 C88.23996094 48.94652344 87.04242188 48.95554688 85.80859375 48.96484375 C84.41833984 48.98224609 84.41833984 48.98224609 83 49 Z " fill="#F97215" transform="translate(3,40)"/>
<path d="M0 0 C0.69738281 0.01353516 1.39476563 0.02707031 2.11328125 0.04101562 C3.82585541 0.0762055 5.53802941 0.13000845 7.25 0.1875 C7.31058594 1.03054687 7.37117188 1.87359375 7.43359375 2.7421875 C7.55927734 4.38574219 7.55927734 4.38574219 7.6875 6.0625 C7.76871094 7.15304688 7.84992187 8.24359375 7.93359375 9.3671875 C8.08001703 12.13478971 8.08001703 12.13478971 9.25 14.1875 C10.57 13.8575 11.89 13.5275 13.25 13.1875 C13.58 8.8975 13.91 4.6075 14.25 0.1875 C34.38 0.1875 54.51 0.1875 75.25 0.1875 C75.745 6.6225 75.745 6.6225 76.25 13.1875 C77.57 13.5175 78.89 13.8475 80.25 14.1875 C81.60091528 11.48566945 81.58858058 9.06941794 81.8125 6.0625 C81.93818359 4.41894531 81.93818359 4.41894531 82.06640625 2.7421875 C82.12699219 1.89914062 82.18757813 1.05609375 82.25 0.1875 C98.73408872 -0.57624156 98.73408872 -0.57624156 104.25 4.1875 C107.25 10.1875 107.25 10.1875 107.25 26.1875 C66.99 26.1875 26.73 26.1875 -14.75 26.1875 C-14.75 6.46961009 -14.75 6.46961009 -10.046875 1.32421875 C-6.74198933 -0.31136243 -3.59589579 -0.13255192 0 0 Z " fill="#F97315" transform="translate(17.75,6.8125)"/>
</svg>
