<?xml version="1.0" encoding="UTF-8"?>
<svg version="1.1" xmlns="http://www.w3.org/2000/svg" width="128" height="128">
<path d="M0 0 C14.66593153 10.19568513 25.60840641 23.74932626 29.74780273 41.46484375 C31.85368154 54.22278914 31.54749005 68.90444137 26.125 80.75 C25.650625 81.81992188 25.17625 82.88984375 24.6875 83.9921875 C16.66496296 100.38439059 3.29215507 111.57260053 -13.875 117.75 C-31.29083776 122.80565077 -50.47497305 120.79391086 -66.29492188 112.20800781 C-82.88830351 102.59546696 -92.15505767 87.99553123 -97.41699219 69.88452148 C-100.05778647 57.57723767 -99.11425691 42.19528146 -93.875 30.75 C-93.1634375 29.14511719 -93.1634375 29.14511719 -92.4375 27.5078125 C-84.89523746 12.09693952 -72.63455422 0.5722872 -56.375 -5.1875 C-37.73814183 -11.3787986 -16.99837717 -10.14228624 0 0 Z M-24.875 29.75 C-19.89095832 35.78331362 -14.45584697 41.2684171 -8.875 46.75 C-7.74911986 45.79270084 -6.6243285 44.83412105 -5.5 43.875 C-4.56027344 43.07449219 -4.56027344 43.07449219 -3.6015625 42.2578125 C-0.45158844 39.57898978 -0.45158844 39.57898978 0.6875 35.625 C-0.10024184 30.19833399 -2.94350231 27.4121017 -6.875 23.75 C-14.99374936 18.33750043 -19.53806443 23.53974771 -24.875 29.75 Z M-32.86254883 37.52880859 C-33.49022659 38.13719574 -34.11790436 38.74558289 -34.76460266 39.37240601 C-37.64983105 42.19986211 -40.5307817 45.03146525 -43.40258789 47.87255859 C-44.91420127 49.36269055 -46.43203502 50.84654121 -47.95629883 52.32373047 C-50.1589796 54.45897978 -52.3408496 56.61373677 -54.51953125 58.7734375 C-55.19570999 59.42178558 -55.87188873 60.07013367 -56.56855774 60.73812866 C-61.37314381 65.56363709 -63.78038842 70.3020916 -65.875 76.75 C-66.2875 77.9875 -66.7 79.225 -67.125 80.5 C-67.86491008 83.70627703 -68.03486609 86.47274521 -67.875 89.75 C-48.12284829 88.43318989 -38.54821308 77.58104081 -25.375 64.3125 C-24.15908886 63.0915631 -22.94294484 61.87085808 -21.7265625 60.65039062 C-18.77335034 57.68625987 -15.82330602 54.71901042 -12.875 51.75 C-16.49597254 47.43954277 -20.19743352 43.29045702 -24.1875 39.3125 C-25.04988281 38.44753906 -25.91226563 37.58257812 -26.80078125 36.69140625 C-29.91400425 33.77752332 -30.06062567 34.80715569 -32.86254883 37.52880859 Z " fill="#F97215" transform="translate(97.875,8.25)"/>
</svg>
