<?xml version="1.0" encoding="UTF-8"?>
<svg version="1.1" xmlns="http://www.w3.org/2000/svg" width="128" height="128">
<path d="M0 0 C4.98484235 7.18893716 7.97063941 16.26424529 7 25 C4.43011319 27.56988681 3.41089947 27.25706775 -0.15625 27.265625 C-1.68958984 27.26949219 -1.68958984 27.26949219 -3.25390625 27.2734375 C-4.32511719 27.26570313 -5.39632812 27.25796875 -6.5 27.25 C-8.10681641 27.26160156 -8.10681641 27.26160156 -9.74609375 27.2734375 C-10.76832031 27.27085938 -11.79054688 27.26828125 -12.84375 27.265625 C-13.78412109 27.26336914 -14.72449219 27.26111328 -15.69335938 27.25878906 C-18 27 -18 27 -20 25 C-20.33870968 18.67741935 -20.33870968 18.67741935 -19 16 C-28.85745878 11.55447937 -38.11414349 10.44647861 -48.5546875 13.96484375 C-58.03265846 17.97708385 -65.44919785 24.6817367 -69.375 34.25 C-73.02380166 44.21281496 -72.82427808 53.01358329 -69 63 C-64.19595433 72.39856909 -57.24514236 78.61327505 -47.39453125 82.2734375 C-37.20327836 85.36572631 -28.77953057 83.95342725 -19 80 C-15.98807923 78.30059104 -13.50389323 76.37783911 -11 74 C-10.44699219 73.47535156 -9.89398438 72.95070313 -9.32421875 72.41015625 C-2.67535695 65.39832929 -0.67789069 56.94317034 0.41015625 47.56640625 C1.06391699 44.72189762 1.59776297 43.63712172 4 42 C10.44444444 42.44444444 10.44444444 42.44444444 12 44 C13.23044754 58.14006109 9.97614485 69.06507778 1 80 C-7.60346254 90.20646617 -18.7610441 95.30985922 -31.875 96.8125 C-44.77317679 97.60623396 -56.86081924 94.25978791 -66.8359375 85.9765625 C-76.44462726 77.2003946 -83.61254206 66.80514357 -84.37109375 53.43359375 C-84.70829118 39.734095 -83.25256547 27.84288386 -73.94140625 17.0234375 C-64.91691116 7.61762571 -54.85357747 0.30999152 -41.36328125 -0.3359375 C-39.67989502 -0.36540379 -37.99614164 -0.37788103 -36.3125 -0.375 C-35.43343994 -0.37483887 -34.55437988 -0.37467773 -33.64868164 -0.37451172 C-25.33235569 -0.22929511 -17.99667479 1.33555014 -11 6 C-10.566875 5.030625 -10.13375 4.06125 -9.6875 3.0625 C-7.21722561 -1.42059055 -4.61402945 -1.61491031 0 0 Z " fill="#F97215" transform="translate(100,16)"/>
</svg>
