<?xml version="1.0" encoding="UTF-8"?>
<svg version="1.1" xmlns="http://www.w3.org/2000/svg" width="128" height="128">
<path d="M0 0 C13.72663066 10.56058117 24.62075677 24.35804227 27.5234375 41.94140625 C29.12536672 62.45612432 26.19468818 80.86648858 12.59179688 96.90795898 C2.28808572 108.35025208 -12.52088786 116.91711196 -28.06738281 118.14624023 C-48.2880071 118.87051159 -65.57908013 115.49423984 -80.9765625 101.62890625 C-92.51094014 90.71693475 -100.15482671 75.41486631 -100.8125 59.48828125 C-100.98043877 48.75304759 -100.97875999 38.89715844 -96.4765625 28.94140625 C-95.765 27.33458984 -95.765 27.33458984 -95.0390625 25.6953125 C-87.00872264 9.30646985 -73.64614423 -1.88032108 -56.4765625 -8.05859375 C-37.60398906 -13.51928202 -16.23414815 -11.28590179 0 0 Z M-13.4765625 31.94140625 C-13.96302246 32.45155273 -14.44948242 32.96169922 -14.95068359 33.48730469 C-21.33800944 40.19227708 -27.47593344 47.02217256 -33.265625 54.25390625 C-37.1536782 58.98002039 -41.31805743 63.4529989 -45.4765625 67.94140625 C-48.29025564 66.64845272 -50.44457641 65.25150526 -52.71875 63.15625 C-53.31042969 62.62580078 -53.90210937 62.09535156 -54.51171875 61.54882812 C-55.73595649 60.43765693 -56.95475697 59.32046492 -58.16796875 58.19726562 C-61.79339718 54.96898283 -64.38898278 52.94140625 -69.4765625 52.94140625 C-72.55989583 54.85807292 -72.55989583 54.85807292 -74.4765625 57.94140625 C-74.5199599 61.0313011 -74.16476731 63.08283152 -72.20239258 65.53100586 C-70.49729015 67.22469425 -68.73313127 68.80832755 -66.9140625 70.37890625 C-66.27944092 70.94585205 -65.64481934 71.51279785 -64.9909668 72.09692383 C-63.16367788 73.72457531 -61.32146166 75.33378308 -59.4765625 76.94140625 C-58.18878906 78.09382813 -58.18878906 78.09382813 -56.875 79.26953125 C-51.75505456 84.26664454 -51.75505456 84.26664454 -45.1328125 85.9140625 C-40.75441382 84.74929618 -38.75672901 82.75551516 -35.9765625 79.37890625 C-35.50081787 78.83024902 -35.02507324 78.2815918 -34.53491211 77.71630859 C-33.59004205 76.62393802 -32.6522096 75.52543299 -31.72216797 74.42041016 C-30.19403527 72.60593977 -28.61717849 70.83744595 -27.0390625 69.06640625 C-24.93375353 66.64454725 -22.84901395 64.20573512 -20.76953125 61.76171875 C-19.75541276 60.57144038 -18.74108337 59.38134167 -17.7265625 58.19140625 C-17.21697998 57.59295898 -16.70739746 56.99451172 -16.18237305 56.37792969 C-11.8124174 51.27291174 -7.27183815 46.34800223 -2.65625 41.46484375 C-0.7799351 39.29262256 0.52339237 37.61009811 1.5234375 34.94140625 C1.32021283 32.16400245 0.86162432 30.45758614 -0.6640625 28.12890625 C-6.30080918 24.43586532 -9.56620103 27.75901963 -13.4765625 31.94140625 Z " fill="#F97215" transform="translate(100.4765625,10.05859375)"/>
</svg>
