<?xml version="1.0" encoding="UTF-8"?>
<svg version="1.1" xmlns="http://www.w3.org/2000/svg" width="128" height="128">
<path d="M0 0 C9.02553466 6.70468289 15.3295278 16.33620934 17.43359375 27.40625 C19.12242936 40.24974057 16.2015309 50.77501481 9.75 61.8125 C10.29527344 62.32111572 10.84054688 62.82973145 11.40234375 63.35375977 C13.86990357 65.6755332 16.30976734 68.02453566 18.75 70.375 C19.60851562 71.17486328 20.46703125 71.97472656 21.3515625 72.79882812 C28.31530141 79.56912984 28.31530141 79.56912984 28.4375 83.77734375 C27.75 86.8125 27.75 86.8125 25.75 88.8125 C22.77093564 89.4872945 21.59472294 89.6773278 18.75 88.8125 C15.22966926 86.1686349 12.30774842 83.02738388 9.3125 79.8125 C8.48556641 78.95398438 7.65863281 78.09546875 6.80664062 77.2109375 C4.77108862 75.09302212 2.75364384 72.96055346 0.75 70.8125 C-0.49257568 71.47282227 -0.49257568 71.47282227 -1.76025391 72.14648438 C-14.28833252 78.74174978 -25.80229193 81.01139009 -39.62109375 76.78515625 C-52.29607325 72.09560217 -60.49981746 63.99667057 -66.25 51.8125 C-70.25088118 40.492281 -69.85208103 26.60906975 -64.9296875 15.6796875 C-59.02890459 5.6071883 -49.79343367 -2.7888428 -38.63671875 -6.4921875 C-24.77696917 -9.33767242 -11.92689934 -7.66601901 0 0 Z M-49.25 14.8125 C-49.9925 15.555 -50.735 16.2975 -51.5 17.0625 C-55.83684872 23.87754798 -58.58804083 31.71598765 -57.25 39.8125 C-54.56726334 50.31737333 -49.7628136 57.93880331 -40.4609375 63.625 C-33.12659575 67.56429309 -24.63358915 68.05245202 -16.5703125 66.1953125 C-7.95552115 63.16269124 -1.39870059 57.64286506 2.75 49.5 C6.30516374 41.63666908 7.10470602 33.53331787 4.6875 25.125 C1.05215241 15.83466727 -5.38174017 10.05259182 -14.25 5.8125 C-27.40667719 0.73448424 -39.71378491 4.91386343 -49.25 14.8125 Z " fill="#F97215" transform="translate(84.25,23.1875)"/>
</svg>
